<?xml version="1.0" encoding="utf-8"?>
<svg width="50" height="50" viewBox="0 0 50 50" fill="none" xmlns="http://www.w3.org/2000/svg">
  <g>
    <path d="M23 0C10.317 0 0 10.317 0 23C0 35.683 10.317 46 23 46C35.683 46 46 35.683 46 23C46 10.317 35.683 0 23 0C23 0 23 0 23 0ZM36.244 34C36.244 34 8.91 34 8.91 34C8.021 34 7.465 33.037 7.909 32.267C7.909 32.267 21.576 8.578 21.576 8.578C22.021 7.807 23.133 7.807 23.578 8.578C23.578 8.578 37.245 32.267 37.245 32.267C37.689 33.037 37.133 34 36.244 34C36.244 34 36.244 34 36.244 34Z" fill="#000000" transform="translate(2 2)" />
  </g>
</svg>